<svg width="15" height="16" viewBox="0 0 15 16" fill="none" xmlns="http://www.w3.org/2000/svg">
<path d="M5.83693 12.3659C7.26057 12.3659 8.55479 11.8668 9.56428 11.0221L14.094 15.5015C14.1976 15.6039 14.327 15.6551 14.4694 15.6551C14.6117 15.6551 14.7412 15.6039 14.8447 15.5015C15.0518 15.2968 15.0518 14.964 14.8447 14.7592L10.3149 10.2798C11.1562 9.28151 11.6739 7.98887 11.6739 6.59385C11.6739 3.40705 9.05953 0.821777 5.83693 0.821777C2.62726 0.821777 0 3.41985 0 6.59385C0 9.78065 2.62726 12.3659 5.83693 12.3659ZM5.83693 1.87125C8.47714 1.87125 10.6126 3.99578 10.6126 6.59385C10.6126 9.20472 8.47714 11.3165 5.83693 11.3165C3.19672 11.3165 1.06126 9.19192 1.06126 6.59385C1.06126 3.99578 3.20966 1.87125 5.83693 1.87125Z" fill="#7B7C7F"/>
</svg>
