<svg width="13" height="13" viewBox="0 0 13 13" fill="none" xmlns="http://www.w3.org/2000/svg">
<path d="M6.75302 0.00278568C7.30504 0.0454516 7.78409 0.173448 8.25468 0.407093C9.3968 0.971904 10.1614 2.04057 10.3073 3.2728C10.3412 3.55419 10.3306 3.95341 10.2841 4.24293C10.117 5.26284 9.51418 6.16491 8.61424 6.73887C7.22467 7.62468 5.3994 7.54342 4.09866 6.53773C3.443 6.0298 2.98193 5.33598 2.78206 4.55276C2.70063 4.23379 2.67419 4.01741 2.67419 3.67406C2.67419 3.24131 2.73553 2.8817 2.87723 2.48247C3.351 1.14764 4.583 0.192749 6.05506 0.021071C6.18619 0.00583363 6.63775 -0.00534105 6.75302 0.00278568Z" fill="#EEEEEE"/>
<path d="M10.0527 7.35799C10.371 7.57233 10.6195 7.77042 10.9072 8.04267C11.4645 8.56888 11.8812 9.12048 12.2344 9.80008C12.7187 10.7316 12.964 11.6865 12.9937 12.7491L13 13H6.50053H9.53674e-07V12.8547C0.00105762 11.6926 0.345807 10.4604 0.951761 9.44962C1.45937 8.60342 2.18905 7.84052 2.97478 7.33259L3.05727 7.27977L3.10168 7.31532C3.12601 7.33462 3.1884 7.38643 3.24128 7.42808C3.87155 7.93905 4.67632 8.31085 5.49483 8.46831C5.85016 8.53739 6.13463 8.5638 6.49841 8.5638C6.77337 8.5638 6.94468 8.55262 7.19637 8.5191C8.14179 8.3911 9.03856 8.00813 9.75872 7.42503C9.819 7.37627 9.88457 7.32446 9.9036 7.30923L9.93744 7.28078L10.0527 7.35799Z" fill="#EEEEEE"/>
</svg>
